<?xml version="1.0" encoding="UTF-8" standalone="no"?>
<svg width="37px" height="60px" viewBox="0 0 37 60" version="1.1" xmlns="http://www.w3.org/2000/svg" xmlns:xlink="http://www.w3.org/1999/xlink">
    <!-- Generator: Sketch 3.8.3 (29802) - http://www.bohemiancoding.com/sketch -->
    <title>Shape Copy 2</title>
    <desc>Created with Sketch.</desc>
    <defs></defs>
    <g id="New-version" stroke="none" stroke-width="1" fill="none" fill-rule="evenodd">
        <g id="3.3.-Contacts" transform="translate(-1043.000000, -624.000000)" fill="#60CCEE">
            <path d="M1080,642.666667 C1080,632.333333 1071.74107,624 1061.5,624 C1051.25893,624 1043,632.333333 1043,642.666667 L1043,642.933333 L1043,642.933333 C1043,643.666667 1043.06607,644.533333 1043.19821,645.466667 L1043.19821,645.6 C1045.11429,657.933333 1061.5,666.133333 1061.5,684 C1061.5,666.133333 1077.88571,657.933333 1079.80179,645.533333 L1079.80179,645.4 C1079.93393,644.466667 1080,643.666667 1080,642.866667 L1080,642.866667 L1080,642.666667 L1080,642.666667 Z M1061.5,653 C1056.01607,653 1051.58929,648.533333 1051.58929,643 C1051.58929,637.466667 1056.01607,633 1061.5,633 C1066.98393,633 1071.41071,637.466667 1071.41071,643 C1071.41071,648.533333 1066.98393,653 1061.5,653 L1061.5,653 Z" id="Shape-Copy-2"></path>
        </g>
    </g>
</svg>